<svg width="133" height="133" viewBox="0 0 133 133" fill="none" xmlns="http://www.w3.org/2000/svg">
<path d="M66.5 11.0833C35.91 11.0833 11.0833 35.91 11.0833 66.5C11.0833 97.09 35.91 121.917 66.5 121.917C97.09 121.917 121.917 97.09 121.917 66.5C121.917 35.91 97.09 11.0833 66.5 11.0833ZM39.1796 101.302C41.5625 96.3142 56.0817 91.4375 66.5 91.4375C76.9183 91.4375 91.4929 96.3142 93.8204 101.302C86.2838 107.287 76.8075 110.833 66.5 110.833C56.1925 110.833 46.7162 107.287 39.1796 101.302ZM101.745 93.2662C93.8204 83.6237 74.5908 80.3541 66.5 80.3541C58.4092 80.3541 39.1796 83.6237 31.255 93.2662C25.6025 85.8404 22.1667 76.5858 22.1667 66.5C22.1667 42.0612 42.0612 22.1666 66.5 22.1666C90.9388 22.1666 110.833 42.0612 110.833 66.5C110.833 76.5858 107.398 85.8404 101.745 93.2662ZM66.5 33.25C55.7492 33.25 47.1042 41.895 47.1042 52.6458C47.1042 63.3966 55.7492 72.0416 66.5 72.0416C77.2508 72.0416 85.8958 63.3966 85.8958 52.6458C85.8958 41.895 77.2508 33.25 66.5 33.25ZM66.5 60.9583C61.9004 60.9583 58.1875 57.2454 58.1875 52.6458C58.1875 48.0462 61.9004 44.3333 66.5 44.3333C71.0996 44.3333 74.8125 48.0462 74.8125 52.6458C74.8125 57.2454 71.0996 60.9583 66.5 60.9583Z" fill="#C4C4C4"/>
</svg>
